<?xml version="1.0" encoding="utf-8"?>
<!-- Generator: Adobe Illustrator 26.5.0, SVG Export Plug-In . SVG Version: 6.00 Build 0)  -->
<svg version="1.1" id="Layer_1" xmlns="http://www.w3.org/2000/svg" xmlns:xlink="http://www.w3.org/1999/xlink" x="0px" y="0px"
	 viewBox="0 0 960.8 283.5" style="enable-background:new 0 0 960.8 283.5;" xml:space="preserve">
<style type="text/css">
	.st0{fill:#EA4B2E;}
	.st1{fill:#85CBD2;}
	.st2{fill:#1A3A5B;}
	.st3{fill:#383737;}
</style>
<g>
	<g>
		<polygon class="st0" points="139,56.7 175,65 175,14.6 139,0 		"/>
		<g>
			<path class="st1" d="M139,283.5l124.7-58.5v-35.1l-16.6,4.9V157l16.6-2v-34.8l-124.7-7V283.5z M175,165.5l52.4-6.2v41.2
				L175,215.8V165.5z"/>
			<polygon class="st1" points="203.8,26.3 203.8,71.7 263.7,85.5 263.7,50.5 			"/>
		</g>
		<g>
			<polygon class="st2" points="50.5,35.8 0,56.3 0,88.7 14.3,85.4 14.3,225 30.9,232.8 30.9,81.6 50.5,77.1 			"/>
			<polygon class="st2" points="102.9,65 102.9,216.2 74.1,207.7 74.1,71.6 50.5,77.1 50.5,242 139,283.5 139,56.7 			"/>
			<polygon class="st2" points="102.9,14.6 74.1,26.3 74.1,71.6 102.9,65 			"/>
		</g>
	</g>
</g>
<g>
	<g>
		<path class="st3" d="M326.4,119.5V162h-10.2v-42.5h-16.5v-9.6h43.2v9.6H326.4z"/>
		<path class="st3" d="M366.7,158.1c-2,3.4-6.2,4.9-10,4.9c-8.7,0-13.7-6.4-13.7-14.3v-22.9h9.8v20.9c0,4,2.1,7.3,6.6,7.3
			c4.3,0,6.8-2.9,6.8-7.1v-21h9.8v29.6c0,2.8,0.2,5.3,0.4,6.5H367C366.8,161.2,366.7,159.5,366.7,158.1z M351.9,110.6
			c2.9,0,5.2,2.4,5.2,5.2c0,2.9-2.4,5.1-5.2,5.1c-2.9,0-5.1-2.3-5.1-5.1C346.7,112.9,349,110.6,351.9,110.6z M367.3,110.6
			c2.9,0,5.2,2.4,5.2,5.2c0,2.9-2.4,5.1-5.2,5.1c-2.9,0-5.1-2.3-5.1-5.1C362.2,112.9,364.4,110.6,367.3,110.6z"/>
		<path class="st3" d="M385.9,162v-53.2h9.6v21c1.6-2.6,5.6-4.9,11-4.9c10.6,0,16.7,8.2,16.7,18.9c0,11-6.8,19.1-17.1,19.1
			c-5,0-8.8-2.2-10.7-5.3v4.4H385.9z M404.5,133.6c-4.9,0-9,3.6-9,10.2c0,6.5,4.1,10.3,9,10.3c5,0,9-3.7,9-10.3
			C413.4,137.2,409.5,133.6,404.5,133.6z"/>
		<path class="st3" d="M435.9,107.8c3.4,0,6,2.7,6,6.1c0,3.2-2.6,6-6,6c-3.3,0-6-2.7-6-6C429.9,110.6,432.6,107.8,435.9,107.8z
			 M431.1,162v-36.2h9.8V162H431.1z"/>
		<path class="st3" d="M460.6,162h-9.8v-36.2h9.5v4.5c2.2-3.7,6.5-5.4,10.4-5.4c9,0,13.1,6.4,13.1,14.3V162h-9.8v-21.1
			c0-4-2-7.2-6.7-7.2c-4.3,0-6.8,3.3-6.8,7.5V162z"/>
		<path class="st3" d="M500.2,161.6c0.7,4,3.8,6.8,8.5,6.8c6.2,0,9.6-3.1,9.6-10.1v-2.6c-1.5,2.4-4.9,4.6-10.1,4.6
			c-9.6,0-16.8-7.4-16.8-17.6c0-9.6,6.9-17.6,16.8-17.6c5.7,0,9,2.5,10.3,4.9v-4.3h9.4v32.3c0,9.9-5.4,19-19,19
			c-9.9,0-16.5-6.2-17.6-13.1L500.2,161.6z M518.4,142.8c0-5.6-3.8-9.1-8.5-9.1c-4.9,0-8.7,3.5-8.7,9.1c0,5.7,3.6,9.2,8.7,9.2
			C514.9,152,518.4,148.4,518.4,142.8z"/>
		<path class="st3" d="M570.9,151.6c-1.8,6.2-7.6,11.5-16.5,11.5c-9.9,0-18.7-7.1-18.7-19.3c0-11.5,8.5-19,17.8-19
			c11.2,0,17.9,7.1,17.9,18.7c0,1.4-0.1,2.9-0.1,3h-25.9c0.2,4.8,4.3,8.2,9.1,8.2c4.6,0,7.1-2.3,8.2-5.5L570.9,151.6z M561.8,139.7
			c-0.1-3.6-2.5-7.1-8.1-7.1c-5.1,0-7.9,3.8-8.1,7.1H561.8z"/>
		<path class="st3" d="M589.1,162h-9.8v-36.2h9.5v4.5c2.2-3.7,6.5-5.4,10.4-5.4c9,0,13.1,6.4,13.1,14.3V162h-9.8v-21.1
			c0-4-2-7.2-6.7-7.2c-4.3,0-6.8,3.3-6.8,7.5V162z"/>
		<path class="st3" d="M670.2,150H649l-4.3,11.9h-10.7l20-52.1h11.8l19.9,52.1h-11L670.2,150z M652.4,140.8h14.4l-7.2-19.7
			L652.4,140.8z"/>
		<path class="st3" d="M691.9,162v-52.1h10.3V162H691.9z"/>
		<path class="st3" d="M728.7,135.9c0-16.6,12.6-27.2,26.5-27.2c14.4,0,21.8,8.8,23.9,17.3l-9.6,3c-1.2-5-5.3-10.5-14.3-10.5
			c-7.8,0-16,5.6-16,17.4c0,11.1,7.8,17.2,16.2,17.2c8.9,0,13.2-5.8,14.6-10.7l9.5,2.9c-2,8-9.5,17.7-24.1,17.7
			C740.9,163.1,728.7,152.5,728.7,135.9z"/>
		<path class="st3" d="M819.3,151.6c-1.8,6.2-7.6,11.5-16.5,11.5c-9.9,0-18.7-7.1-18.7-19.3c0-11.5,8.5-19,17.8-19
			c11.2,0,17.9,7.1,17.9,18.7c0,1.4-0.1,2.9-0.1,3h-25.9c0.2,4.8,4.3,8.2,9.1,8.2c4.6,0,7.1-2.3,8.2-5.5L819.3,151.6z M810.2,139.7
			c-0.1-3.6-2.5-7.1-8.1-7.1c-5.1,0-7.9,3.8-8.1,7.1H810.2z"/>
		<path class="st3" d="M837.5,162h-9.8v-36.2h9.5v4.5c2.2-3.7,6.5-5.4,10.4-5.4c9,0,13.1,6.4,13.1,14.3V162h-9.8v-21.1
			c0-4-2-7.2-6.7-7.2c-4.3,0-6.8,3.3-6.8,7.5V162z"/>
		<path class="st3" d="M882.6,125.8h7.3v8.7h-7.3v15.1c0,3.2,1.5,4.2,4.3,4.2c1.2,0,2.5-0.1,3-0.3v8.1c-0.9,0.4-2.6,0.9-5.5,0.9
			c-7.1,0-11.5-4.2-11.5-11.2v-16.8h-6.5v-8.7h1.8c3.8,0,5.6-2.5,5.6-5.7V115h8.8V125.8z"/>
		<path class="st3" d="M930.4,151.6c-1.8,6.2-7.6,11.5-16.5,11.5c-9.9,0-18.7-7.1-18.7-19.3c0-11.5,8.5-19,17.8-19
			c11.2,0,17.9,7.1,17.9,18.7c0,1.4-0.1,2.9-0.1,3h-25.9c0.2,4.8,4.3,8.2,9.1,8.2c4.6,0,7.1-2.3,8.2-5.5L930.4,151.6z M921.3,139.7
			c-0.1-3.6-2.5-7.1-8.1-7.1c-5.1,0-7.9,3.8-8.1,7.1H921.3z"/>
		<path class="st3" d="M960.8,135.5c-1.1-0.2-2.1-0.3-2.9-0.3c-5,0-9.3,2.4-9.3,10.2V162h-9.8v-36.2h9.5v5.4
			c2.2-4.8,7.2-5.7,10.3-5.7c0.8,0,1.5,0.1,2.3,0.1V135.5z"/>
	</g>
</g>
</svg>
